<svg xmlns="http://www.w3.org/2000/svg" xmlns:xlink="http://www.w3.org/1999/xlink" xmlns:s="https://github.com/nturley/netlistsvg" width="1289" height="897">
  <style>svg {
    stroke:#000;
    fill:none;
  }
  text {
    fill:#000;
    stroke:none;
    font-size:10px;
    font-weight: bold;
    font-family: "Courier New", monospace;
  }
  .nodelabel {
    text-anchor: middle;
  }
  .inputPortLabel {
    text-anchor: end;
  }
  .splitjoinBody {
    fill:#000;
  }</style>
  <g s:type="or" transform="translate(750.6666666666666,308)" s:width="30" s:height="25" id="cell_$or$mpu.sv:185$1">
    <s:alias val="$or"/>
    <s:alias val="$logic_or"/>
    <s:alias val="$_OR_"/>
    <path d="M0,25 L0,25 L15,25 A15 12.5 0 0 0 15,0 L0,0" class="cell_$or$mpu.sv:185$1"/>
    <path d="M0,0 A30 25 0 0 1 0,25" class="cell_$or$mpu.sv:185$1"/>
    <g s:x="3" s:y="5" s:pid="A"/>
    <g s:x="3" s:y="20" s:pid="B"/>
    <g s:x="30" s:y="12.5" s:pid="Y"/>
  </g>
  <g s:type="or" transform="translate(882,315.5)" s:width="30" s:height="25" id="cell_$or$mpu.sv:185$2">
    <s:alias val="$or"/>
    <s:alias val="$logic_or"/>
    <s:alias val="$_OR_"/>
    <path d="M0,25 L0,25 L15,25 A15 12.5 0 0 0 15,0 L0,0" class="cell_$or$mpu.sv:185$2"/>
    <path d="M0,0 A30 25 0 0 1 0,25" class="cell_$or$mpu.sv:185$2"/>
    <g s:x="3" s:y="5" s:pid="A"/>
    <g s:x="3" s:y="20" s:pid="B"/>
    <g s:x="30" s:y="12.5" s:pid="Y"/>
  </g>
  <g s:type="mux" transform="translate(885.3333333333334,627)" s:width="20" s:height="40" id="cell_$procmux$11">
    <s:alias val="$pmux"/>
    <s:alias val="$mux"/>
    <s:alias val="$_MUX_"/>
    <path d="M0,0 L20,10 L20,30 L0,40 Z" class="cell_$procmux$11"/>
    <g s:x="0" s:y="10" s:pid="A"/>
    <g s:x="0" s:y="30" s:pid="B"/>
    <g s:x="10" s:y="35" s:pid="S"/>
    <g s:x="20" s:y="20" s:pid="Y"/>
  </g>
  <g s:type="mux" transform="translate(507.66666666666663,525.5)" s:width="20" s:height="40" id="cell_$procmux$5">
    <s:alias val="$pmux"/>
    <s:alias val="$mux"/>
    <s:alias val="$_MUX_"/>
    <path d="M0,0 L20,10 L20,30 L0,40 Z" class="cell_$procmux$5"/>
    <g s:x="0" s:y="10" s:pid="A"/>
    <g s:x="0" s:y="30" s:pid="B"/>
    <g s:x="10" s:y="35" s:pid="S"/>
    <g s:x="20" s:y="20" s:pid="Y"/>
  </g>
  <g s:type="mux" transform="translate(758.5,617)" s:width="20" s:height="40" id="cell_$procmux$8">
    <s:alias val="$pmux"/>
    <s:alias val="$mux"/>
    <s:alias val="$_MUX_"/>
    <path d="M0,0 L20,10 L20,30 L0,40 Z" class="cell_$procmux$8"/>
    <g s:x="0" s:y="10" s:pid="A"/>
    <g s:x="0" s:y="30" s:pid="B"/>
    <g s:x="10" s:y="35" s:pid="S"/>
    <g s:x="20" s:y="20" s:pid="Y"/>
  </g>
  <g s:type="generic" transform="translate(745,123.5)" s:width="30" s:height="40" id="cell_access_check_inst">
    <text x="15" y="-4" class="nodelabel cell_access_check_inst" s:attribute="ref">access_check</text>
    <rect width="30" height="140" s:generic="body" class="cell_access_check_inst"/>
    <g transform="translate(0,10)" s:x="0" s:y="10" s:pid="in0" id="port_access_check_inst~act_rdata">
      <text x="-3" y="-4" class="inputPortLabel cell_access_check_inst">act_rdata</text>
    </g>
    <g transform="translate(0,30)" s:x="0" s:y="10" s:pid="in0" id="port_access_check_inst~addr">
      <text x="-3" y="-4" class="inputPortLabel cell_access_check_inst">addr</text>
    </g>
    <g transform="translate(0,50)" s:x="0" s:y="10" s:pid="in0" id="port_access_check_inst~clk">
      <text x="-3" y="-4" class="inputPortLabel cell_access_check_inst">clk</text>
    </g>
    <g transform="translate(0,70)" s:x="0" s:y="10" s:pid="in0" id="port_access_check_inst~core_id">
      <text x="-3" y="-4" class="inputPortLabel cell_access_check_inst">core_id</text>
    </g>
    <g transform="translate(0,90)" s:x="0" s:y="10" s:pid="in0" id="port_access_check_inst~cs">
      <text x="-3" y="-4" class="inputPortLabel cell_access_check_inst">cs</text>
    </g>
    <g transform="translate(0,110)" s:x="0" s:y="10" s:pid="in0" id="port_access_check_inst~rst_n">
      <text x="-3" y="-4" class="inputPortLabel cell_access_check_inst">rst_n</text>
    </g>
    <g transform="translate(0,130)" s:x="0" s:y="10" s:pid="in0" id="port_access_check_inst~we">
      <text x="-3" y="-4" class="inputPortLabel cell_access_check_inst">we</text>
    </g>
    <g transform="translate(30,10)" s:x="30" s:y="10" s:pid="out0" id="port_access_check_inst~act_addr">
      <text x="5" y="-4" style="fill:#000; stroke:none" class="cell_access_check_inst">act_addr</text>
    </g>
    <g transform="translate(30,30)" s:x="30" s:y="10" s:pid="out0" id="port_access_check_inst~act_cs">
      <text x="5" y="-4" style="fill:#000; stroke:none" class="cell_access_check_inst">act_cs</text>
    </g>
    <g transform="translate(30,50)" s:x="30" s:y="10" s:pid="out0" id="port_access_check_inst~bsy">
      <text x="5" y="-4" style="fill:#000; stroke:none" class="cell_access_check_inst">bsy</text>
    </g>
    <g transform="translate(30,70)" s:x="30" s:y="10" s:pid="out0" id="port_access_check_inst~rdy">
      <text x="5" y="-4" style="fill:#000; stroke:none" class="cell_access_check_inst">rdy</text>
    </g>
    <g transform="translate(30,90)" s:x="30" s:y="10" s:pid="out0" id="port_access_check_inst~result">
      <text x="5" y="-4" style="fill:#000; stroke:none" class="cell_access_check_inst">result</text>
    </g>
  </g>
  <g s:type="generic" transform="translate(1103,262)" s:width="30" s:height="40" id="cell_act_mem_inst">
    <text x="15" y="-4" class="nodelabel cell_act_mem_inst" s:attribute="ref">act_mem</text>
    <rect width="30" height="220" s:generic="body" class="cell_act_mem_inst"/>
    <g transform="translate(0,10)" s:x="0" s:y="10" s:pid="in0" id="port_act_mem_inst~check_addr">
      <text x="-3" y="-4" class="inputPortLabel cell_act_mem_inst">check_addr</text>
    </g>
    <g transform="translate(0,30)" s:x="0" s:y="10" s:pid="in0" id="port_act_mem_inst~clk">
      <text x="-3" y="-4" class="inputPortLabel cell_act_mem_inst">clk</text>
    </g>
    <g transform="translate(0,50)" s:x="0" s:y="10" s:pid="in0" id="port_act_mem_inst~cs">
      <text x="-3" y="-4" class="inputPortLabel cell_act_mem_inst">cs</text>
    </g>
    <g transform="translate(0,70)" s:x="0" s:y="10" s:pid="in0" id="port_act_mem_inst~dealloc_addr">
      <text x="-3" y="-4" class="inputPortLabel cell_act_mem_inst">dealloc_addr</text>
    </g>
    <g transform="translate(0,90)" s:x="0" s:y="10" s:pid="in0" id="port_act_mem_inst~dealloc_wdata">
      <text x="-3" y="-4" class="inputPortLabel cell_act_mem_inst">dealloc_wdata</text>
    </g>
    <g transform="translate(0,110)" s:x="0" s:y="10" s:pid="in0" id="port_act_mem_inst~dealloc_we">
      <text x="-3" y="-4" class="inputPortLabel cell_act_mem_inst">dealloc_we</text>
    </g>
    <g transform="translate(0,130)" s:x="0" s:y="10" s:pid="in0" id="port_act_mem_inst~malloc_addr">
      <text x="-3" y="-4" class="inputPortLabel cell_act_mem_inst">malloc_addr</text>
    </g>
    <g transform="translate(0,150)" s:x="0" s:y="10" s:pid="in0" id="port_act_mem_inst~malloc_dealloc">
      <text x="-3" y="-4" class="inputPortLabel cell_act_mem_inst">malloc_dealloc</text>
    </g>
    <g transform="translate(0,170)" s:x="0" s:y="10" s:pid="in0" id="port_act_mem_inst~malloc_wdata">
      <text x="-3" y="-4" class="inputPortLabel cell_act_mem_inst">malloc_wdata</text>
    </g>
    <g transform="translate(0,190)" s:x="0" s:y="10" s:pid="in0" id="port_act_mem_inst~malloc_we">
      <text x="-3" y="-4" class="inputPortLabel cell_act_mem_inst">malloc_we</text>
    </g>
    <g transform="translate(0,210)" s:x="0" s:y="10" s:pid="in0" id="port_act_mem_inst~rst_n">
      <text x="-3" y="-4" class="inputPortLabel cell_act_mem_inst">rst_n</text>
    </g>
    <g transform="translate(30,10)" s:x="30" s:y="10" s:pid="out0" id="port_act_mem_inst~bsy">
      <text x="5" y="-4" style="fill:#000; stroke:none" class="cell_act_mem_inst">bsy</text>
    </g>
    <g transform="translate(30,30)" s:x="30" s:y="10" s:pid="out0" id="port_act_mem_inst~check_rdata">
      <text x="5" y="-4" style="fill:#000; stroke:none" class="cell_act_mem_inst">check_rdata</text>
    </g>
    <g transform="translate(30,50)" s:x="30" s:y="10" s:pid="out0" id="port_act_mem_inst~dealloc_rdata">
      <text x="5" y="-4" style="fill:#000; stroke:none" class="cell_act_mem_inst">dealloc_rdata</text>
    </g>
    <g transform="translate(30,70)" s:x="30" s:y="10" s:pid="out0" id="port_act_mem_inst~malloc_rdata">
      <text x="5" y="-4" style="fill:#000; stroke:none" class="cell_act_mem_inst">malloc_rdata</text>
    </g>
  </g>
  <g s:type="generic" transform="translate(193,297.5)" s:width="30" s:height="40" id="cell_dealloc_inst">
    <text x="15" y="-4" class="nodelabel cell_dealloc_inst" s:attribute="ref">dealloc</text>
    <rect width="30" height="180" s:generic="body" class="cell_dealloc_inst"/>
    <g transform="translate(0,10)" s:x="0" s:y="10" s:pid="in0" id="port_dealloc_inst~act_rdata">
      <text x="-3" y="-4" class="inputPortLabel cell_dealloc_inst">act_rdata</text>
    </g>
    <g transform="translate(0,30)" s:x="0" s:y="10" s:pid="in0" id="port_dealloc_inst~addr">
      <text x="-3" y="-4" class="inputPortLabel cell_dealloc_inst">addr</text>
    </g>
    <g transform="translate(0,50)" s:x="0" s:y="10" s:pid="in0" id="port_dealloc_inst~clk">
      <text x="-3" y="-4" class="inputPortLabel cell_dealloc_inst">clk</text>
    </g>
    <g transform="translate(0,70)" s:x="0" s:y="10" s:pid="in0" id="port_dealloc_inst~core_id">
      <text x="-3" y="-4" class="inputPortLabel cell_dealloc_inst">core_id</text>
    </g>
    <g transform="translate(0,90)" s:x="0" s:y="10" s:pid="in0" id="port_dealloc_inst~cs">
      <text x="-3" y="-4" class="inputPortLabel cell_dealloc_inst">cs</text>
    </g>
    <g transform="translate(0,110)" s:x="0" s:y="10" s:pid="in0" id="port_dealloc_inst~rst_n">
      <text x="-3" y="-4" class="inputPortLabel cell_dealloc_inst">rst_n</text>
    </g>
    <g transform="translate(30,10)" s:x="30" s:y="10" s:pid="out0" id="port_dealloc_inst~act_addr">
      <text x="5" y="-4" style="fill:#000; stroke:none" class="cell_dealloc_inst">act_addr</text>
    </g>
    <g transform="translate(30,30)" s:x="30" s:y="10" s:pid="out0" id="port_dealloc_inst~act_cs">
      <text x="5" y="-4" style="fill:#000; stroke:none" class="cell_dealloc_inst">act_cs</text>
    </g>
    <g transform="translate(30,50)" s:x="30" s:y="10" s:pid="out0" id="port_dealloc_inst~act_wdata">
      <text x="5" y="-4" style="fill:#000; stroke:none" class="cell_dealloc_inst">act_wdata</text>
    </g>
    <g transform="translate(30,70)" s:x="30" s:y="10" s:pid="out0" id="port_dealloc_inst~act_we">
      <text x="5" y="-4" style="fill:#000; stroke:none" class="cell_dealloc_inst">act_we</text>
    </g>
    <g transform="translate(30,90)" s:x="30" s:y="10" s:pid="out0" id="port_dealloc_inst~bsy">
      <text x="5" y="-4" style="fill:#000; stroke:none" class="cell_dealloc_inst">bsy</text>
    </g>
    <g transform="translate(30,110)" s:x="30" s:y="10" s:pid="out0" id="port_dealloc_inst~err">
      <text x="5" y="-4" style="fill:#000; stroke:none" class="cell_dealloc_inst">err</text>
    </g>
    <g transform="translate(30,130)" s:x="30" s:y="10" s:pid="out0" id="port_dealloc_inst~rdy">
      <text x="5" y="-4" style="fill:#000; stroke:none" class="cell_dealloc_inst">rdy</text>
    </g>
    <g transform="translate(30,150)" s:x="30" s:y="10" s:pid="out0" id="port_dealloc_inst~reservation_enqueue">
      <text x="5" y="-4" style="fill:#000; stroke:none" class="cell_dealloc_inst">reservation_enqueue</text>
    </g>
    <g transform="translate(30,170)" s:x="30" s:y="10" s:pid="out0" id="port_dealloc_inst~reservation_id_out">
      <text x="5" y="-4" style="fill:#000; stroke:none" class="cell_dealloc_inst">reservation_id_out</text>
    </g>
  </g>
  <g s:type="generic" transform="translate(494,595.5)" s:width="30" s:height="40" id="cell_malloc_inst">
    <text x="15" y="-4" class="nodelabel cell_malloc_inst" s:attribute="ref">malloc</text>
    <rect width="30" height="180" s:generic="body" class="cell_malloc_inst"/>
    <g transform="translate(0,10)" s:x="0" s:y="10" s:pid="in0" id="port_malloc_inst~act_rdata">
      <text x="-3" y="-4" class="inputPortLabel cell_malloc_inst">act_rdata</text>
    </g>
    <g transform="translate(0,30)" s:x="0" s:y="10" s:pid="in0" id="port_malloc_inst~clk">
      <text x="-3" y="-4" class="inputPortLabel cell_malloc_inst">clk</text>
    </g>
    <g transform="translate(0,50)" s:x="0" s:y="10" s:pid="in0" id="port_malloc_inst~core_id">
      <text x="-3" y="-4" class="inputPortLabel cell_malloc_inst">core_id</text>
    </g>
    <g transform="translate(0,70)" s:x="0" s:y="10" s:pid="in0" id="port_malloc_inst~cs">
      <text x="-3" y="-4" class="inputPortLabel cell_malloc_inst">cs</text>
    </g>
    <g transform="translate(0,90)" s:x="0" s:y="10" s:pid="in0" id="port_malloc_inst~num_blocks">
      <text x="-3" y="-4" class="inputPortLabel cell_malloc_inst">num_blocks</text>
    </g>
    <g transform="translate(0,110)" s:x="0" s:y="10" s:pid="in0" id="port_malloc_inst~read_mask">
      <text x="-3" y="-4" class="inputPortLabel cell_malloc_inst">read_mask</text>
    </g>
    <g transform="translate(0,130)" s:x="0" s:y="10" s:pid="in0" id="port_malloc_inst~reservation_id">
      <text x="-3" y="-4" class="inputPortLabel cell_malloc_inst">reservation_id</text>
    </g>
    <g transform="translate(0,150)" s:x="0" s:y="10" s:pid="in0" id="port_malloc_inst~rst_n">
      <text x="-3" y="-4" class="inputPortLabel cell_malloc_inst">rst_n</text>
    </g>
    <g transform="translate(0,170)" s:x="0" s:y="10" s:pid="in0" id="port_malloc_inst~write_mask">
      <text x="-3" y="-4" class="inputPortLabel cell_malloc_inst">write_mask</text>
    </g>
    <g transform="translate(30,10)" s:x="30" s:y="10" s:pid="out0" id="port_malloc_inst~act_addr">
      <text x="5" y="-4" style="fill:#000; stroke:none" class="cell_malloc_inst">act_addr</text>
    </g>
    <g transform="translate(30,30)" s:x="30" s:y="10" s:pid="out0" id="port_malloc_inst~act_cs">
      <text x="5" y="-4" style="fill:#000; stroke:none" class="cell_malloc_inst">act_cs</text>
    </g>
    <g transform="translate(30,50)" s:x="30" s:y="10" s:pid="out0" id="port_malloc_inst~act_wdata">
      <text x="5" y="-4" style="fill:#000; stroke:none" class="cell_malloc_inst">act_wdata</text>
    </g>
    <g transform="translate(30,70)" s:x="30" s:y="10" s:pid="out0" id="port_malloc_inst~act_we">
      <text x="5" y="-4" style="fill:#000; stroke:none" class="cell_malloc_inst">act_we</text>
    </g>
    <g transform="translate(30,90)" s:x="30" s:y="10" s:pid="out0" id="port_malloc_inst~base_addr">
      <text x="5" y="-4" style="fill:#000; stroke:none" class="cell_malloc_inst">base_addr</text>
    </g>
    <g transform="translate(30,110)" s:x="30" s:y="10" s:pid="out0" id="port_malloc_inst~bsy">
      <text x="5" y="-4" style="fill:#000; stroke:none" class="cell_malloc_inst">bsy</text>
    </g>
    <g transform="translate(30,130)" s:x="30" s:y="10" s:pid="out0" id="port_malloc_inst~err">
      <text x="5" y="-4" style="fill:#000; stroke:none" class="cell_malloc_inst">err</text>
    </g>
    <g transform="translate(30,150)" s:x="30" s:y="10" s:pid="out0" id="port_malloc_inst~rdy">
      <text x="5" y="-4" style="fill:#000; stroke:none" class="cell_malloc_inst">rdy</text>
    </g>
    <g transform="translate(30,170)" s:x="30" s:y="10" s:pid="out0" id="port_malloc_inst~reservation_dequeue">
      <text x="5" y="-4" style="fill:#000; stroke:none" class="cell_malloc_inst">reservation_dequeue</text>
    </g>
  </g>
  <g s:type="generic" transform="translate(1103,771)" s:width="30" s:height="40" id="cell_reservation_counter_inst">
    <text x="15" y="-4" class="nodelabel cell_reservation_counter_inst" s:attribute="ref">reservation_counter</text>
    <rect width="30" height="100" s:generic="body" class="cell_reservation_counter_inst"/>
    <g transform="translate(0,10)" s:x="0" s:y="10" s:pid="in0" id="port_reservation_counter_inst~clk">
      <text x="-3" y="-4" class="inputPortLabel cell_reservation_counter_inst">clk</text>
    </g>
    <g transform="translate(0,30)" s:x="0" s:y="10" s:pid="in0" id="port_reservation_counter_inst~dequeue">
      <text x="-3" y="-4" class="inputPortLabel cell_reservation_counter_inst">dequeue</text>
    </g>
    <g transform="translate(0,50)" s:x="0" s:y="10" s:pid="in0" id="port_reservation_counter_inst~enqueue">
      <text x="-3" y="-4" class="inputPortLabel cell_reservation_counter_inst">enqueue</text>
    </g>
    <g transform="translate(0,70)" s:x="0" s:y="10" s:pid="in0" id="port_reservation_counter_inst~freed_reservation_id">
      <text x="-3" y="-4" class="inputPortLabel cell_reservation_counter_inst">freed_reservation_id</text>
    </g>
    <g transform="translate(0,90)" s:x="0" s:y="10" s:pid="in0" id="port_reservation_counter_inst~rst_n">
      <text x="-3" y="-4" class="inputPortLabel cell_reservation_counter_inst">rst_n</text>
    </g>
    <g transform="translate(30,10)" s:x="30" s:y="10" s:pid="out0" id="port_reservation_counter_inst~empty">
      <text x="5" y="-4" style="fill:#000; stroke:none" class="cell_reservation_counter_inst">empty</text>
    </g>
    <g transform="translate(30,30)" s:x="30" s:y="10" s:pid="out0" id="port_reservation_counter_inst~full">
      <text x="5" y="-4" style="fill:#000; stroke:none" class="cell_reservation_counter_inst">full</text>
    </g>
    <g transform="translate(30,50)" s:x="30" s:y="10" s:pid="out0" id="port_reservation_counter_inst~new_reservation_id">
      <text x="5" y="-4" style="fill:#000; stroke:none" class="cell_reservation_counter_inst">new_reservation_id</text>
    </g>
    <g transform="translate(30,70)" s:x="30" s:y="10" s:pid="out0" id="port_reservation_counter_inst~rdy">
      <text x="5" y="-4" style="fill:#000; stroke:none" class="cell_reservation_counter_inst">rdy</text>
    </g>
  </g>
  <g s:type="inputExt" transform="translate(47,139)" s:width="30" s:height="20" id="cell_clk">
    <text x="15" y="-4" class="nodelabel cell_clk" s:attribute="ref">clk</text>
    <s:alias val="$_inputExt_"/>
    <path d="M0,0 L0,20 L15,20 L30,10 L15,0 Z" class="cell_clk"/>
    <g s:x="28" s:y="10" s:pid="Y"/>
  </g>
  <g s:type="inputExt" transform="translate(47,778.5)" s:width="30" s:height="20" id="cell_rst_n">
    <text x="15" y="-4" class="nodelabel cell_rst_n" s:attribute="ref">rst_n</text>
    <s:alias val="$_inputExt_"/>
    <path d="M0,0 L0,20 L15,20 L30,10 L15,0 Z" class="cell_rst_n"/>
    <g s:x="28" s:y="10" s:pid="Y"/>
  </g>
  <g s:type="inputExt" transform="translate(12,22)" s:width="30" s:height="20" id="cell_cs">
    <text x="15" y="-4" class="nodelabel cell_cs" s:attribute="ref">cs</text>
    <s:alias val="$_inputExt_"/>
    <path d="M0,0 L0,20 L15,20 L30,10 L15,0 Z" class="cell_cs"/>
    <g s:x="28" s:y="10" s:pid="Y"/>
  </g>
  <g s:type="inputExt" transform="translate(54,22)" s:width="30" s:height="20" id="cell_cfg">
    <text x="15" y="-4" class="nodelabel cell_cfg" s:attribute="ref">cfg</text>
    <s:alias val="$_inputExt_"/>
    <path d="M0,0 L0,20 L15,20 L30,10 L15,0 Z" class="cell_cfg"/>
    <g s:x="28" s:y="10" s:pid="Y"/>
  </g>
  <g s:type="inputExt" transform="translate(96,22)" s:width="30" s:height="20" id="cell_we">
    <text x="15" y="-4" class="nodelabel cell_we" s:attribute="ref">we</text>
    <s:alias val="$_inputExt_"/>
    <path d="M0,0 L0,20 L15,20 L30,10 L15,0 Z" class="cell_we"/>
    <g s:x="28" s:y="10" s:pid="Y"/>
  </g>
  <g s:type="inputExt" transform="translate(390,22)" s:width="30" s:height="20" id="cell_core_id">
    <text x="15" y="-4" class="nodelabel cell_core_id" s:attribute="ref">core_id</text>
    <s:alias val="$_inputExt_"/>
    <path d="M0,0 L0,20 L15,20 L30,10 L15,0 Z" class="cell_core_id"/>
    <g s:x="28" s:y="10" s:pid="Y"/>
  </g>
  <g s:type="inputExt" transform="translate(444,22)" s:width="30" s:height="20" id="cell_free_reserve">
    <text x="15" y="-4" class="nodelabel cell_free_reserve" s:attribute="ref">free_reserve</text>
    <s:alias val="$_inputExt_"/>
    <path d="M0,0 L0,20 L15,20 L30,10 L15,0 Z" class="cell_free_reserve"/>
    <g s:x="28" s:y="10" s:pid="Y"/>
  </g>
  <g s:type="outputExt" transform="translate(138,22)" s:width="30" s:height="20" id="cell_rdy">
    <text x="15" y="-4" class="nodelabel cell_rdy" s:attribute="ref">rdy</text>
    <s:alias val="$_outputExt_"/>
    <path d="M30,0 L30,20 L15,20 L0,10 L15,0 Z" class="cell_rdy"/>
    <g s:x="0" s:y="10" s:pid="A"/>
  </g>
  <g s:type="outputExt" transform="translate(180,22)" s:width="30" s:height="20" id="cell_bsy">
    <text x="15" y="-4" class="nodelabel cell_bsy" s:attribute="ref">bsy</text>
    <s:alias val="$_outputExt_"/>
    <path d="M30,0 L30,20 L15,20 L0,10 L15,0 Z" class="cell_bsy"/>
    <g s:x="0" s:y="10" s:pid="A"/>
  </g>
  <g s:type="outputExt" transform="translate(222,22)" s:width="30" s:height="20" id="cell_rdata">
    <text x="15" y="-4" class="nodelabel cell_rdata" s:attribute="ref">rdata</text>
    <s:alias val="$_outputExt_"/>
    <path d="M30,0 L30,20 L15,20 L0,10 L15,0 Z" class="cell_rdata"/>
    <g s:x="0" s:y="10" s:pid="A"/>
  </g>
  <g s:type="inputExt" transform="translate(264,22)" s:width="30" s:height="20" id="cell_addr">
    <text x="15" y="-4" class="nodelabel cell_addr" s:attribute="ref">addr</text>
    <s:alias val="$_inputExt_"/>
    <path d="M0,0 L0,20 L15,20 L30,10 L15,0 Z" class="cell_addr"/>
    <g s:x="28" s:y="10" s:pid="Y"/>
  </g>
  <g s:type="inputExt" transform="translate(306,22)" s:width="30" s:height="20" id="cell_wdata">
    <text x="15" y="-4" class="nodelabel cell_wdata" s:attribute="ref">wdata</text>
    <s:alias val="$_inputExt_"/>
    <path d="M0,0 L0,20 L15,20 L30,10 L15,0 Z" class="cell_wdata"/>
    <g s:x="28" s:y="10" s:pid="Y"/>
  </g>
  <g s:type="outputExt" transform="translate(348,22)" s:width="30" s:height="20" id="cell_error">
    <text x="15" y="-4" class="nodelabel cell_error" s:attribute="ref">error</text>
    <s:alias val="$_outputExt_"/>
    <path d="M30,0 L30,20 L15,20 L0,10 L15,0 Z" class="cell_error"/>
    <g s:x="0" s:y="10" s:pid="A"/>
  </g>
  <g s:type="constant" transform="translate(745,687)" s:width="30" s:height="20" id="cell_00">
    <text x="15" y="-4" class="nodelabel cell_00" s:attribute="ref">00</text>
    <s:alias val="$_constant_"/>
    <rect width="30" height="20" class="cell_00"/>
    <g s:x="30" s:y="10" s:pid="Y"/>
  </g>
  <g s:type="constant" transform="translate(193,525.5)" s:width="30" s:height="20" id="cell_10">
    <text x="15" y="-4" class="nodelabel cell_10" s:attribute="ref">10</text>
    <s:alias val="$_constant_"/>
    <rect width="30" height="20" class="cell_10"/>
    <g s:x="30" s:y="10" s:pid="Y"/>
  </g>
  <g s:type="constant" transform="translate(193,590.5)" s:width="30" s:height="20" id="cell_01">
    <text x="15" y="-4" class="nodelabel cell_01" s:attribute="ref">01</text>
    <s:alias val="$_constant_"/>
    <rect width="30" height="20" class="cell_01"/>
    <g s:x="30" s:y="10" s:pid="Y"/>
  </g>
  <g s:type="join" transform="translate(72,54)" s:width="4" s:height="40" id="cell_$join$,433,434,435,436,437,438,439,440,441,442,443,444,445,446,447,448,449,450,451,452,453,454,455,456,457,458,459,460,461,462,463,464,">
    <rect width="5" height="40" class="splitjoinBody" s:generic="body"/>
    <s:alias val="$_join_"/>
    <g s:x="5" s:y="20" s:pid="out"/>
    <g transform="translate(0,10)" s:x="0" s:y="10" s:pid="in0">
      <text x="-3" y="-4" class="inputPortLabel">0:15</text>
    </g>
  </g>
  <line x1="525" x2="670" y1="626" y2="626" class="net_113"/>
  <line x1="670" x2="670" y1="626" y2="313" class="net_113"/>
  <circle cx="670" cy="626" r="2" style="fill:#000" class="net_113"/>
  <line x1="670" x2="753.6666666666666" y1="313" y2="313" class="net_113"/>
  <line x1="525" x2="670" y1="626" y2="626" class="net_113"/>
  <line x1="670" x2="670" y1="626" y2="717" class="net_113"/>
  <line x1="670" x2="895.3333333333334" y1="717" y2="717" class="net_113"/>
  <line x1="895.3333333333334" x2="895.3333333333334" y1="717" y2="662" class="net_113"/>
  <line x1="525" x2="670" y1="626" y2="626" class="net_113"/>
  <line x1="670" x2="670" y1="626" y2="667" class="net_113"/>
  <line x1="670" x2="768.5" y1="667" y2="667" class="net_113"/>
  <circle cx="670" cy="667" r="2" style="fill:#000" class="net_113"/>
  <line x1="768.5" x2="768.5" y1="667" y2="652" class="net_113"/>
  <line x1="224" x2="753.6666666666666" y1="328" y2="328" class="net_114"/>
  <line x1="224" x2="389" y1="328" y2="328" class="net_114"/>
  <line x1="389" x2="389" y1="328" y2="575.5" class="net_114"/>
  <line x1="389" x2="517.6666666666666" y1="575.5" y2="575.5" class="net_114"/>
  <circle cx="389" cy="328" r="2" style="fill:#000" class="net_114"/>
  <line x1="517.6666666666666" x2="517.6666666666666" y1="575.5" y2="560.5" class="net_114"/>
  <line x1="780.6666666666666" x2="885" y1="320.5" y2="320.5" class="net_115"/>
  <line x1="776" x2="857" y1="154" y2="154" class="net_116"/>
  <line x1="857" x2="857" y1="154" y2="335.5" class="net_116"/>
  <line x1="857" x2="885" y1="335.5" y2="335.5" class="net_116"/>
  <line x1="778.5" x2="885.3333333333334" y1="637" y2="637" class="net_118,119"/>
  <line x1="775" x2="857" y1="697" y2="697" class="net_530,531"/>
  <line x1="857" x2="857" y1="697" y2="657" class="net_530,531"/>
  <line x1="857" x2="885.3333333333334" y1="657" y2="657" class="net_530,531"/>
  <line x1="223" x2="507.66666666666663" y1="535.5" y2="535.5" class="net_532,533"/>
  <line x1="223" x2="399" y1="600.5" y2="600.5" class="net_534,535"/>
  <line x1="399" x2="399" y1="600.5" y2="555.5" class="net_534,535"/>
  <line x1="399" x2="507.66666666666663" y1="555.5" y2="555.5" class="net_534,535"/>
  <line x1="527.6666666666666" x2="680" y1="545.5" y2="545.5" class="net_122,123"/>
  <line x1="680" x2="680" y1="545.5" y2="627" class="net_122,123"/>
  <line x1="680" x2="758.5" y1="627" y2="627" class="net_122,123"/>
  <line x1="1134" x2="1257" y1="292.5" y2="292.5" class="net_134,135,136,137,138,139,140,141,142,143,144,145,146,147,148,149,150,151,152,153,154,155,156,157,158,159,160,161,162,163,164,165,166,167,168,169,170,171,172,173,174,175,176,177,178,179,180"/>
  <line x1="1257" x2="1257" y1="292.5" y2="103.5" class="net_134,135,136,137,138,139,140,141,142,143,144,145,146,147,148,149,150,151,152,153,154,155,156,157,158,159,160,161,162,163,164,165,166,167,168,169,170,171,172,173,174,175,176,177,178,179,180"/>
  <line x1="1257" x2="680" y1="103.5" y2="103.5" class="net_134,135,136,137,138,139,140,141,142,143,144,145,146,147,148,149,150,151,152,153,154,155,156,157,158,159,160,161,162,163,164,165,166,167,168,169,170,171,172,173,174,175,176,177,178,179,180"/>
  <line x1="680" x2="680" y1="103.5" y2="134" class="net_134,135,136,137,138,139,140,141,142,143,144,145,146,147,148,149,150,151,152,153,154,155,156,157,158,159,160,161,162,163,164,165,166,167,168,169,170,171,172,173,174,175,176,177,178,179,180"/>
  <line x1="680" x2="745" y1="134" y2="134" class="net_134,135,136,137,138,139,140,141,142,143,144,145,146,147,148,149,150,151,152,153,154,155,156,157,158,159,160,161,162,163,164,165,166,167,168,169,170,171,172,173,174,175,176,177,178,179,180"/>
  <line x1="75" x2="650" y1="149" y2="149" class="net_2"/>
  <line x1="650" x2="650" y1="149" y2="174" class="net_2"/>
  <line x1="650" x2="745" y1="174" y2="174" class="net_2"/>
  <line x1="75" x2="128" y1="149" y2="149" class="net_2"/>
  <line x1="128" x2="128" y1="149" y2="276.5" class="net_2"/>
  <line x1="128" x2="922" y1="276.5" y2="276.5" class="net_2"/>
  <line x1="922" x2="922" y1="276.5" y2="292.5" class="net_2"/>
  <circle cx="128" cy="149" r="2" style="fill:#000" class="net_2"/>
  <circle cx="128" cy="276.5" r="2" style="fill:#000" class="net_2"/>
  <line x1="922" x2="1103" y1="292.5" y2="292.5" class="net_2"/>
  <line x1="75" x2="128" y1="149" y2="149" class="net_2"/>
  <line x1="128" x2="128" y1="149" y2="348" class="net_2"/>
  <circle cx="128" cy="348" r="2" style="fill:#000" class="net_2"/>
  <line x1="128" x2="193" y1="348" y2="348" class="net_2"/>
  <line x1="75" x2="128" y1="149" y2="149" class="net_2"/>
  <line x1="128" x2="128" y1="149" y2="620.5" class="net_2"/>
  <line x1="128" x2="379" y1="620.5" y2="620.5" class="net_2"/>
  <line x1="379" x2="379" y1="620.5" y2="626" class="net_2"/>
  <circle cx="128" cy="620.5" r="2" style="fill:#000" class="net_2"/>
  <line x1="379" x2="494" y1="626" y2="626" class="net_2"/>
  <line x1="75" x2="128" y1="149" y2="149" class="net_2"/>
  <line x1="128" x2="128" y1="149" y2="799.5" class="net_2"/>
  <line x1="128" x2="972" y1="799.5" y2="799.5" class="net_2"/>
  <line x1="972" x2="972" y1="799.5" y2="781.5" class="net_2"/>
  <line x1="972" x2="1103" y1="781.5" y2="781.5" class="net_2"/>
  <line x1="88" x2="745" y1="194" y2="194" class="net_214,215,216,217"/>
  <line x1="88" x2="88" y1="194" y2="368" class="net_214,215,216,217"/>
  <circle cx="88" cy="368" r="2" style="fill:#000" class="net_214,215,216,217"/>
  <line x1="88" x2="193" y1="368" y2="368" class="net_214,215,216,217"/>
  <line x1="88" x2="88" y1="194" y2="646" class="net_214,215,216,217"/>
  <line x1="88" x2="494" y1="646" y2="646" class="net_214,215,216,217"/>
  <line x1="75" x2="98" y1="788.5" y2="788.5" class="net_3"/>
  <line x1="98" x2="98" y1="788.5" y2="234" class="net_3"/>
  <circle cx="98" cy="788.5" r="2" style="fill:#000" class="net_3"/>
  <line x1="98" x2="745" y1="234" y2="234" class="net_3"/>
  <line x1="75" x2="962" y1="788.5" y2="788.5" class="net_3"/>
  <line x1="962" x2="962" y1="788.5" y2="472.5" class="net_3"/>
  <line x1="962" x2="1103" y1="472.5" y2="472.5" class="net_3"/>
  <line x1="75" x2="98" y1="788.5" y2="788.5" class="net_3"/>
  <line x1="98" x2="98" y1="788.5" y2="408" class="net_3"/>
  <circle cx="98" cy="408" r="2" style="fill:#000" class="net_3"/>
  <line x1="98" x2="193" y1="408" y2="408" class="net_3"/>
  <line x1="75" x2="379" y1="788.5" y2="788.5" class="net_3"/>
  <line x1="379" x2="379" y1="788.5" y2="746" class="net_3"/>
  <circle cx="379" cy="788.5" r="2" style="fill:#000" class="net_3"/>
  <line x1="379" x2="494" y1="746" y2="746" class="net_3"/>
  <line x1="75" x2="98" y1="788.5" y2="788.5" class="net_3"/>
  <line x1="98" x2="98" y1="788.5" y2="843.5" class="net_3"/>
  <line x1="98" x2="922" y1="843.5" y2="843.5" class="net_3"/>
  <line x1="922" x2="922" y1="843.5" y2="861.5" class="net_3"/>
  <line x1="922" x2="1103" y1="861.5" y2="861.5" class="net_3"/>
  <line x1="776" x2="922" y1="134" y2="134" class="net_124,125,126,127,128,129,130,131,132,133"/>
  <line x1="922" x2="922" y1="134" y2="272.5" class="net_124,125,126,127,128,129,130,131,132,133"/>
  <line x1="922" x2="1103" y1="272.5" y2="272.5" class="net_124,125,126,127,128,129,130,131,132,133"/>
  <line x1="912" x2="922" y1="328" y2="328" class="net_117"/>
  <line x1="922" x2="922" y1="328" y2="312.5" class="net_117"/>
  <line x1="922" x2="1103" y1="312.5" y2="312.5" class="net_117"/>
  <line x1="224" x2="399" y1="308" y2="308" class="net_223,224,225,226,227,228,229,230,231,232"/>
  <line x1="399" x2="399" y1="308" y2="350.5" class="net_223,224,225,226,227,228,229,230,231,232"/>
  <line x1="399" x2="922" y1="350.5" y2="350.5" class="net_223,224,225,226,227,228,229,230,231,232"/>
  <line x1="922" x2="922" y1="350.5" y2="332.5" class="net_223,224,225,226,227,228,229,230,231,232"/>
  <line x1="922" x2="1103" y1="332.5" y2="332.5" class="net_223,224,225,226,227,228,229,230,231,232"/>
  <line x1="224" x2="349" y1="348" y2="348" class="net_280,281,282,283,284,285,286,287,288,289,290,291,292,293,294,295,296,297,298,299,300,301,302,303,304,305,306,307,308,309,310,311,312,313,314,315,316,317,318,319,320,321,322,323,324,325,326"/>
  <line x1="349" x2="349" y1="348" y2="361.5" class="net_280,281,282,283,284,285,286,287,288,289,290,291,292,293,294,295,296,297,298,299,300,301,302,303,304,305,306,307,308,309,310,311,312,313,314,315,316,317,318,319,320,321,322,323,324,325,326"/>
  <line x1="349" x2="922" y1="361.5" y2="361.5" class="net_280,281,282,283,284,285,286,287,288,289,290,291,292,293,294,295,296,297,298,299,300,301,302,303,304,305,306,307,308,309,310,311,312,313,314,315,316,317,318,319,320,321,322,323,324,325,326"/>
  <line x1="922" x2="922" y1="361.5" y2="352.5" class="net_280,281,282,283,284,285,286,287,288,289,290,291,292,293,294,295,296,297,298,299,300,301,302,303,304,305,306,307,308,309,310,311,312,313,314,315,316,317,318,319,320,321,322,323,324,325,326"/>
  <line x1="922" x2="1103" y1="352.5" y2="352.5" class="net_280,281,282,283,284,285,286,287,288,289,290,291,292,293,294,295,296,297,298,299,300,301,302,303,304,305,306,307,308,309,310,311,312,313,314,315,316,317,318,319,320,321,322,323,324,325,326"/>
  <line x1="224" x2="399" y1="368" y2="368" class="net_327"/>
  <line x1="399" x2="399" y1="368" y2="372.5" class="net_327"/>
  <line x1="399" x2="1103" y1="372.5" y2="372.5" class="net_327"/>
  <line x1="525" x2="922" y1="606" y2="606" class="net_328,329,330,331,332,333,334,335,336,337"/>
  <line x1="922" x2="922" y1="606" y2="392.5" class="net_328,329,330,331,332,333,334,335,336,337"/>
  <line x1="922" x2="1103" y1="392.5" y2="392.5" class="net_328,329,330,331,332,333,334,335,336,337"/>
  <line x1="905.3333333333334" x2="932" y1="647" y2="647" class="net_120,121"/>
  <line x1="932" x2="932" y1="647" y2="412.5" class="net_120,121"/>
  <line x1="932" x2="1103" y1="412.5" y2="412.5" class="net_120,121"/>
  <line x1="525" x2="660" y1="646" y2="646" class="net_385,386,387,388,389,390,391,392,393,394,395,396,397,398,399,400,401,402,403,404,405,406,407,408,409,410,411,412,413,414,415,416,417,418,419,420,421,422,423,424,425,426,427,428,429,430,431"/>
  <line x1="660" x2="660" y1="646" y2="728" class="net_385,386,387,388,389,390,391,392,393,394,395,396,397,398,399,400,401,402,403,404,405,406,407,408,409,410,411,412,413,414,415,416,417,418,419,420,421,422,423,424,425,426,427,428,429,430,431"/>
  <line x1="660" x2="942" y1="728" y2="728" class="net_385,386,387,388,389,390,391,392,393,394,395,396,397,398,399,400,401,402,403,404,405,406,407,408,409,410,411,412,413,414,415,416,417,418,419,420,421,422,423,424,425,426,427,428,429,430,431"/>
  <line x1="942" x2="942" y1="728" y2="432.5" class="net_385,386,387,388,389,390,391,392,393,394,395,396,397,398,399,400,401,402,403,404,405,406,407,408,409,410,411,412,413,414,415,416,417,418,419,420,421,422,423,424,425,426,427,428,429,430,431"/>
  <line x1="942" x2="1103" y1="432.5" y2="432.5" class="net_385,386,387,388,389,390,391,392,393,394,395,396,397,398,399,400,401,402,403,404,405,406,407,408,409,410,411,412,413,414,415,416,417,418,419,420,421,422,423,424,425,426,427,428,429,430,431"/>
  <line x1="525" x2="650" y1="666" y2="666" class="net_432"/>
  <line x1="650" x2="650" y1="666" y2="739" class="net_432"/>
  <line x1="650" x2="952" y1="739" y2="739" class="net_432"/>
  <line x1="952" x2="952" y1="739" y2="452.5" class="net_432"/>
  <line x1="952" x2="1103" y1="452.5" y2="452.5" class="net_432"/>
  <line x1="1134" x2="1277" y1="312.5" y2="312.5" class="net_233,234,235,236,237,238,239,240,241,242,243,244,245,246,247,248,249,250,251,252,253,254,255,256,257,258,259,260,261,262,263,264,265,266,267,268,269,270,271,272,273,274,275,276,277,278,279"/>
  <line x1="1277" x2="1277" y1="312.5" y2="81.5" class="net_233,234,235,236,237,238,239,240,241,242,243,244,245,246,247,248,249,250,251,252,253,254,255,256,257,258,259,260,261,262,263,264,265,266,267,268,269,270,271,272,273,274,275,276,277,278,279"/>
  <line x1="1277" x2="118" y1="81.5" y2="81.5" class="net_233,234,235,236,237,238,239,240,241,242,243,244,245,246,247,248,249,250,251,252,253,254,255,256,257,258,259,260,261,262,263,264,265,266,267,268,269,270,271,272,273,274,275,276,277,278,279"/>
  <line x1="118" x2="118" y1="81.5" y2="308" class="net_233,234,235,236,237,238,239,240,241,242,243,244,245,246,247,248,249,250,251,252,253,254,255,256,257,258,259,260,261,262,263,264,265,266,267,268,269,270,271,272,273,274,275,276,277,278,279"/>
  <line x1="118" x2="193" y1="308" y2="308" class="net_233,234,235,236,237,238,239,240,241,242,243,244,245,246,247,248,249,250,251,252,253,254,255,256,257,258,259,260,261,262,263,264,265,266,267,268,269,270,271,272,273,274,275,276,277,278,279"/>
  <line x1="78" x2="108" y1="74.5" y2="74.5" class="net_433,434,435,436,437,438,439,440,441,442,443,444,445,446,447,448,449,450,451,452,453,454,455,456,457,458,459,460,461,462,463,464"/>
  <line x1="108" x2="108" y1="74.5" y2="328" class="net_433,434,435,436,437,438,439,440,441,442,443,444,445,446,447,448,449,450,451,452,453,454,455,456,457,458,459,460,461,462,463,464"/>
  <line x1="108" x2="193" y1="328" y2="328" class="net_433,434,435,436,437,438,439,440,441,442,443,444,445,446,447,448,449,450,451,452,453,454,455,456,457,458,459,460,461,462,463,464"/>
  <line x1="1134" x2="1267" y1="332.5" y2="332.5" class="net_338,339,340,341,342,343,344,345,346,347,348,349,350,351,352,353,354,355,356,357,358,359,360,361,362,363,364,365,366,367,368,369,370,371,372,373,374,375,376,377,378,379,380,381,382,383,384"/>
  <line x1="1267" x2="1267" y1="332.5" y2="92.5" class="net_338,339,340,341,342,343,344,345,346,347,348,349,350,351,352,353,354,355,356,357,358,359,360,361,362,363,364,365,366,367,368,369,370,371,372,373,374,375,376,377,378,379,380,381,382,383,384"/>
  <line x1="1267" x2="379" y1="92.5" y2="92.5" class="net_338,339,340,341,342,343,344,345,346,347,348,349,350,351,352,353,354,355,356,357,358,359,360,361,362,363,364,365,366,367,368,369,370,371,372,373,374,375,376,377,378,379,380,381,382,383,384"/>
  <line x1="379" x2="379" y1="92.5" y2="606" class="net_338,339,340,341,342,343,344,345,346,347,348,349,350,351,352,353,354,355,356,357,358,359,360,361,362,363,364,365,366,367,368,369,370,371,372,373,374,375,376,377,378,379,380,381,382,383,384"/>
  <line x1="379" x2="494" y1="606" y2="606" class="net_338,339,340,341,342,343,344,345,346,347,348,349,350,351,352,353,354,355,356,357,358,359,360,361,362,363,364,365,366,367,368,369,370,371,372,373,374,375,376,377,378,379,380,381,382,383,384"/>
  <line x1="22" x2="22" y1="64.5" y2="657" class="net_433,434,435,436,437,438,439,440,441,442,443,444,445,446,447,448"/>
  <line x1="22" x2="379" y1="657" y2="657" class="net_433,434,435,436,437,438,439,440,441,442,443,444,445,446,447,448"/>
  <line x1="379" x2="379" y1="657" y2="706" class="net_433,434,435,436,437,438,439,440,441,442,443,444,445,446,447,448"/>
  <line x1="379" x2="494" y1="706" y2="706" class="net_433,434,435,436,437,438,439,440,441,442,443,444,445,446,447,448"/>
  <line x1="22" x2="72" y1="64.5" y2="64.5" class="net_433,434,435,436,437,438,439,440,441,442,443,444,445,446,447,448"/>
  <line x1="1134" x2="1257" y1="821.5" y2="821.5" class="net_517,518,519,520,521,522,523,524,525,526"/>
  <line x1="1257" x2="1257" y1="821.5" y2="884" class="net_517,518,519,520,521,522,523,524,525,526"/>
  <line x1="1257" x2="359" y1="884" y2="884" class="net_517,518,519,520,521,522,523,524,525,526"/>
  <line x1="359" x2="359" y1="884" y2="726" class="net_517,518,519,520,521,522,523,524,525,526"/>
  <line x1="359" x2="494" y1="726" y2="726" class="net_517,518,519,520,521,522,523,524,525,526"/>
  <line x1="525" x2="650" y1="766" y2="766" class="net_516"/>
  <line x1="650" x2="650" y1="766" y2="810.5" class="net_516"/>
  <line x1="650" x2="922" y1="810.5" y2="810.5" class="net_516"/>
  <line x1="922" x2="922" y1="810.5" y2="801.5" class="net_516"/>
  <line x1="922" x2="1103" y1="801.5" y2="801.5" class="net_516"/>
  <line x1="224" x2="369" y1="448" y2="448" class="net_469"/>
  <line x1="369" x2="369" y1="448" y2="821.5" class="net_469"/>
  <line x1="369" x2="1103" y1="821.5" y2="821.5" class="net_469"/>
  <line x1="224" x2="349" y1="468" y2="468" class="net_470,471,472,473,474,475,476,477,478,479"/>
  <line x1="349" x2="349" y1="468" y2="832.5" class="net_470,471,472,473,474,475,476,477,478,479"/>
  <line x1="349" x2="922" y1="832.5" y2="832.5" class="net_470,471,472,473,474,475,476,477,478,479"/>
  <line x1="922" x2="922" y1="832.5" y2="841.5" class="net_470,471,472,473,474,475,476,477,478,479"/>
  <line x1="922" x2="1103" y1="841.5" y2="841.5" class="net_470,471,472,473,474,475,476,477,478,479"/>
</svg>
