<svg xmlns="http://www.w3.org/2000/svg" xmlns:xlink="http://www.w3.org/1999/xlink" xmlns:s="https://github.com/nturley/netlistsvg" width="1038" height="712">
  <style>svg {
    stroke:#000;
    fill:none;
  }
  text {
    fill:#000;
    stroke:none;
    font-size:10px;
    font-weight: bold;
    font-family: "Courier New", monospace;
  }
  .nodelabel {
    text-anchor: middle;
  }
  .inputPortLabel {
    text-anchor: end;
  }
  .splitjoinBody {
    fill:#000;
  }</style>
  <g s:type="or" transform="translate(675,371.5)" s:width="30" s:height="25" id="cell_$or$top.sv:110$1">
    <s:alias val="$or"/>
    <s:alias val="$logic_or"/>
    <s:alias val="$_OR_"/>
    <path d="M0,25 L0,25 L15,25 A15 12.5 0 0 0 15,0 L0,0" class="cell_$or$top.sv:110$1"/>
    <path d="M0,0 A30 25 0 0 1 0,25" class="cell_$or$top.sv:110$1"/>
    <g s:x="3" s:y="5" s:pid="A"/>
    <g s:x="3" s:y="20" s:pid="B"/>
    <g s:x="30" s:y="12.5" s:pid="Y"/>
  </g>
  <g s:type="generic" transform="translate(866,327)" s:width="30" s:height="40" id="cell_act_mem_inst">
    <text x="15" y="-4" class="nodelabel cell_act_mem_inst" s:attribute="ref">act_mem</text>
    <rect width="30" height="200" s:generic="body" class="cell_act_mem_inst"/>
    <g transform="translate(0,10)" s:x="0" s:y="10" s:pid="in0" id="port_act_mem_inst~clk">
      <text x="-3" y="-4" class="inputPortLabel cell_act_mem_inst">clk</text>
    </g>
    <g transform="translate(0,30)" s:x="0" s:y="10" s:pid="in0" id="port_act_mem_inst~cs">
      <text x="-3" y="-4" class="inputPortLabel cell_act_mem_inst">cs</text>
    </g>
    <g transform="translate(0,50)" s:x="0" s:y="10" s:pid="in0" id="port_act_mem_inst~dealloc_addr">
      <text x="-3" y="-4" class="inputPortLabel cell_act_mem_inst">dealloc_addr</text>
    </g>
    <g transform="translate(0,70)" s:x="0" s:y="10" s:pid="in0" id="port_act_mem_inst~dealloc_wdata">
      <text x="-3" y="-4" class="inputPortLabel cell_act_mem_inst">dealloc_wdata</text>
    </g>
    <g transform="translate(0,90)" s:x="0" s:y="10" s:pid="in0" id="port_act_mem_inst~dealloc_we">
      <text x="-3" y="-4" class="inputPortLabel cell_act_mem_inst">dealloc_we</text>
    </g>
    <g transform="translate(0,110)" s:x="0" s:y="10" s:pid="in0" id="port_act_mem_inst~malloc_addr">
      <text x="-3" y="-4" class="inputPortLabel cell_act_mem_inst">malloc_addr</text>
    </g>
    <g transform="translate(0,130)" s:x="0" s:y="10" s:pid="in0" id="port_act_mem_inst~malloc_dealloc">
      <text x="-3" y="-4" class="inputPortLabel cell_act_mem_inst">malloc_dealloc</text>
    </g>
    <g transform="translate(0,150)" s:x="0" s:y="10" s:pid="in0" id="port_act_mem_inst~malloc_wdata">
      <text x="-3" y="-4" class="inputPortLabel cell_act_mem_inst">malloc_wdata</text>
    </g>
    <g transform="translate(0,170)" s:x="0" s:y="10" s:pid="in0" id="port_act_mem_inst~malloc_we">
      <text x="-3" y="-4" class="inputPortLabel cell_act_mem_inst">malloc_we</text>
    </g>
    <g transform="translate(0,190)" s:x="0" s:y="10" s:pid="in0" id="port_act_mem_inst~rst_n">
      <text x="-3" y="-4" class="inputPortLabel cell_act_mem_inst">rst_n</text>
    </g>
    <g transform="translate(30,10)" s:x="30" s:y="10" s:pid="out0" id="port_act_mem_inst~bsy">
      <text x="5" y="-4" style="fill:#000; stroke:none" class="cell_act_mem_inst">bsy</text>
    </g>
    <g transform="translate(30,30)" s:x="30" s:y="10" s:pid="out0" id="port_act_mem_inst~dealloc_rdata">
      <text x="5" y="-4" style="fill:#000; stroke:none" class="cell_act_mem_inst">dealloc_rdata</text>
    </g>
    <g transform="translate(30,50)" s:x="30" s:y="10" s:pid="out0" id="port_act_mem_inst~malloc_rdata">
      <text x="5" y="-4" style="fill:#000; stroke:none" class="cell_act_mem_inst">malloc_rdata</text>
    </g>
  </g>
  <g s:type="generic" transform="translate(429,118)" s:width="30" s:height="40" id="cell_dealloc_inst">
    <text x="15" y="-4" class="nodelabel cell_dealloc_inst" s:attribute="ref">dealloc</text>
    <rect width="30" height="180" s:generic="body" class="cell_dealloc_inst"/>
    <g transform="translate(0,10)" s:x="0" s:y="10" s:pid="in0" id="port_dealloc_inst~act_rdata">
      <text x="-3" y="-4" class="inputPortLabel cell_dealloc_inst">act_rdata</text>
    </g>
    <g transform="translate(0,30)" s:x="0" s:y="10" s:pid="in0" id="port_dealloc_inst~addr">
      <text x="-3" y="-4" class="inputPortLabel cell_dealloc_inst">addr</text>
    </g>
    <g transform="translate(0,50)" s:x="0" s:y="10" s:pid="in0" id="port_dealloc_inst~clk">
      <text x="-3" y="-4" class="inputPortLabel cell_dealloc_inst">clk</text>
    </g>
    <g transform="translate(0,70)" s:x="0" s:y="10" s:pid="in0" id="port_dealloc_inst~core_id">
      <text x="-3" y="-4" class="inputPortLabel cell_dealloc_inst">core_id</text>
    </g>
    <g transform="translate(0,90)" s:x="0" s:y="10" s:pid="in0" id="port_dealloc_inst~cs">
      <text x="-3" y="-4" class="inputPortLabel cell_dealloc_inst">cs</text>
    </g>
    <g transform="translate(0,110)" s:x="0" s:y="10" s:pid="in0" id="port_dealloc_inst~rst_n">
      <text x="-3" y="-4" class="inputPortLabel cell_dealloc_inst">rst_n</text>
    </g>
    <g transform="translate(30,10)" s:x="30" s:y="10" s:pid="out0" id="port_dealloc_inst~act_addr">
      <text x="5" y="-4" style="fill:#000; stroke:none" class="cell_dealloc_inst">act_addr</text>
    </g>
    <g transform="translate(30,30)" s:x="30" s:y="10" s:pid="out0" id="port_dealloc_inst~act_cs">
      <text x="5" y="-4" style="fill:#000; stroke:none" class="cell_dealloc_inst">act_cs</text>
    </g>
    <g transform="translate(30,50)" s:x="30" s:y="10" s:pid="out0" id="port_dealloc_inst~act_wdata">
      <text x="5" y="-4" style="fill:#000; stroke:none" class="cell_dealloc_inst">act_wdata</text>
    </g>
    <g transform="translate(30,70)" s:x="30" s:y="10" s:pid="out0" id="port_dealloc_inst~act_we">
      <text x="5" y="-4" style="fill:#000; stroke:none" class="cell_dealloc_inst">act_we</text>
    </g>
    <g transform="translate(30,90)" s:x="30" s:y="10" s:pid="out0" id="port_dealloc_inst~bsy">
      <text x="5" y="-4" style="fill:#000; stroke:none" class="cell_dealloc_inst">bsy</text>
    </g>
    <g transform="translate(30,110)" s:x="30" s:y="10" s:pid="out0" id="port_dealloc_inst~err">
      <text x="5" y="-4" style="fill:#000; stroke:none" class="cell_dealloc_inst">err</text>
    </g>
    <g transform="translate(30,130)" s:x="30" s:y="10" s:pid="out0" id="port_dealloc_inst~rdy">
      <text x="5" y="-4" style="fill:#000; stroke:none" class="cell_dealloc_inst">rdy</text>
    </g>
    <g transform="translate(30,150)" s:x="30" s:y="10" s:pid="out0" id="port_dealloc_inst~reservation_enqueue">
      <text x="5" y="-4" style="fill:#000; stroke:none" class="cell_dealloc_inst">reservation_enqueue</text>
    </g>
    <g transform="translate(30,170)" s:x="30" s:y="10" s:pid="out0" id="port_dealloc_inst~reservation_id_out">
      <text x="5" y="-4" style="fill:#000; stroke:none" class="cell_dealloc_inst">reservation_id_out</text>
    </g>
  </g>
  <g s:type="generic" transform="translate(429,346)" s:width="30" s:height="40" id="cell_malloc_inst">
    <text x="15" y="-4" class="nodelabel cell_malloc_inst" s:attribute="ref">malloc</text>
    <rect width="30" height="180" s:generic="body" class="cell_malloc_inst"/>
    <g transform="translate(0,10)" s:x="0" s:y="10" s:pid="in0" id="port_malloc_inst~act_rdata">
      <text x="-3" y="-4" class="inputPortLabel cell_malloc_inst">act_rdata</text>
    </g>
    <g transform="translate(0,30)" s:x="0" s:y="10" s:pid="in0" id="port_malloc_inst~clk">
      <text x="-3" y="-4" class="inputPortLabel cell_malloc_inst">clk</text>
    </g>
    <g transform="translate(0,50)" s:x="0" s:y="10" s:pid="in0" id="port_malloc_inst~core_id">
      <text x="-3" y="-4" class="inputPortLabel cell_malloc_inst">core_id</text>
    </g>
    <g transform="translate(0,70)" s:x="0" s:y="10" s:pid="in0" id="port_malloc_inst~cs">
      <text x="-3" y="-4" class="inputPortLabel cell_malloc_inst">cs</text>
    </g>
    <g transform="translate(0,90)" s:x="0" s:y="10" s:pid="in0" id="port_malloc_inst~num_blocks">
      <text x="-3" y="-4" class="inputPortLabel cell_malloc_inst">num_blocks</text>
    </g>
    <g transform="translate(0,110)" s:x="0" s:y="10" s:pid="in0" id="port_malloc_inst~read_mask">
      <text x="-3" y="-4" class="inputPortLabel cell_malloc_inst">read_mask</text>
    </g>
    <g transform="translate(0,130)" s:x="0" s:y="10" s:pid="in0" id="port_malloc_inst~reservation_id">
      <text x="-3" y="-4" class="inputPortLabel cell_malloc_inst">reservation_id</text>
    </g>
    <g transform="translate(0,150)" s:x="0" s:y="10" s:pid="in0" id="port_malloc_inst~rst_n">
      <text x="-3" y="-4" class="inputPortLabel cell_malloc_inst">rst_n</text>
    </g>
    <g transform="translate(0,170)" s:x="0" s:y="10" s:pid="in0" id="port_malloc_inst~write_mask">
      <text x="-3" y="-4" class="inputPortLabel cell_malloc_inst">write_mask</text>
    </g>
    <g transform="translate(30,10)" s:x="30" s:y="10" s:pid="out0" id="port_malloc_inst~act_addr">
      <text x="5" y="-4" style="fill:#000; stroke:none" class="cell_malloc_inst">act_addr</text>
    </g>
    <g transform="translate(30,30)" s:x="30" s:y="10" s:pid="out0" id="port_malloc_inst~act_cs">
      <text x="5" y="-4" style="fill:#000; stroke:none" class="cell_malloc_inst">act_cs</text>
    </g>
    <g transform="translate(30,50)" s:x="30" s:y="10" s:pid="out0" id="port_malloc_inst~act_wdata">
      <text x="5" y="-4" style="fill:#000; stroke:none" class="cell_malloc_inst">act_wdata</text>
    </g>
    <g transform="translate(30,70)" s:x="30" s:y="10" s:pid="out0" id="port_malloc_inst~act_we">
      <text x="5" y="-4" style="fill:#000; stroke:none" class="cell_malloc_inst">act_we</text>
    </g>
    <g transform="translate(30,90)" s:x="30" s:y="10" s:pid="out0" id="port_malloc_inst~base_addr">
      <text x="5" y="-4" style="fill:#000; stroke:none" class="cell_malloc_inst">base_addr</text>
    </g>
    <g transform="translate(30,110)" s:x="30" s:y="10" s:pid="out0" id="port_malloc_inst~bsy">
      <text x="5" y="-4" style="fill:#000; stroke:none" class="cell_malloc_inst">bsy</text>
    </g>
    <g transform="translate(30,130)" s:x="30" s:y="10" s:pid="out0" id="port_malloc_inst~err">
      <text x="5" y="-4" style="fill:#000; stroke:none" class="cell_malloc_inst">err</text>
    </g>
    <g transform="translate(30,150)" s:x="30" s:y="10" s:pid="out0" id="port_malloc_inst~rdy">
      <text x="5" y="-4" style="fill:#000; stroke:none" class="cell_malloc_inst">rdy</text>
    </g>
    <g transform="translate(30,170)" s:x="30" s:y="10" s:pid="out0" id="port_malloc_inst~reservation_dequeue">
      <text x="5" y="-4" style="fill:#000; stroke:none" class="cell_malloc_inst">reservation_dequeue</text>
    </g>
  </g>
  <g s:type="generic" transform="translate(866,575)" s:width="30" s:height="40" id="cell_rc">
    <text x="15" y="-4" class="nodelabel cell_rc" s:attribute="ref">reservation_counter</text>
    <rect width="30" height="100" s:generic="body" class="cell_rc"/>
    <g transform="translate(0,10)" s:x="0" s:y="10" s:pid="in0" id="port_rc~clk">
      <text x="-3" y="-4" class="inputPortLabel cell_rc">clk</text>
    </g>
    <g transform="translate(0,30)" s:x="0" s:y="10" s:pid="in0" id="port_rc~dequeue">
      <text x="-3" y="-4" class="inputPortLabel cell_rc">dequeue</text>
    </g>
    <g transform="translate(0,50)" s:x="0" s:y="10" s:pid="in0" id="port_rc~enqueue">
      <text x="-3" y="-4" class="inputPortLabel cell_rc">enqueue</text>
    </g>
    <g transform="translate(0,70)" s:x="0" s:y="10" s:pid="in0" id="port_rc~freed_reservation_id">
      <text x="-3" y="-4" class="inputPortLabel cell_rc">freed_reservation_id</text>
    </g>
    <g transform="translate(0,90)" s:x="0" s:y="10" s:pid="in0" id="port_rc~rst_n">
      <text x="-3" y="-4" class="inputPortLabel cell_rc">rst_n</text>
    </g>
    <g transform="translate(30,10)" s:x="30" s:y="10" s:pid="out0" id="port_rc~empty">
      <text x="5" y="-4" style="fill:#000; stroke:none" class="cell_rc">empty</text>
    </g>
    <g transform="translate(30,30)" s:x="30" s:y="10" s:pid="out0" id="port_rc~full">
      <text x="5" y="-4" style="fill:#000; stroke:none" class="cell_rc">full</text>
    </g>
    <g transform="translate(30,50)" s:x="30" s:y="10" s:pid="out0" id="port_rc~new_reservation_id">
      <text x="5" y="-4" style="fill:#000; stroke:none" class="cell_rc">new_reservation_id</text>
    </g>
    <g transform="translate(30,70)" s:x="30" s:y="10" s:pid="out0" id="port_rc~rdy">
      <text x="5" y="-4" style="fill:#000; stroke:none" class="cell_rc">rdy</text>
    </g>
  </g>
  <g s:type="inputExt" transform="translate(204,87)" s:width="30" s:height="20" id="cell_clk">
    <text x="15" y="-4" class="nodelabel cell_clk" s:attribute="ref">clk</text>
    <s:alias val="$_inputExt_"/>
    <path d="M0,0 L0,20 L15,20 L30,10 L15,0 Z" class="cell_clk"/>
    <g s:x="28" s:y="10" s:pid="Y"/>
  </g>
  <g s:type="inputExt" transform="translate(204,556.5)" s:width="30" s:height="20" id="cell_rst_n">
    <text x="15" y="-4" class="nodelabel cell_rst_n" s:attribute="ref">rst_n</text>
    <s:alias val="$_inputExt_"/>
    <path d="M0,0 L0,20 L15,20 L30,10 L15,0 Z" class="cell_rst_n"/>
    <g s:x="28" s:y="10" s:pid="Y"/>
  </g>
  <g s:type="inputExt" transform="translate(204,178.5)" s:width="30" s:height="20" id="cell_core_id">
    <text x="15" y="-4" class="nodelabel cell_core_id" s:attribute="ref">core_id</text>
    <s:alias val="$_inputExt_"/>
    <path d="M0,0 L0,20 L15,20 L30,10 L15,0 Z" class="cell_core_id"/>
    <g s:x="28" s:y="10" s:pid="Y"/>
  </g>
  <g s:type="inputExt" transform="translate(12,22)" s:width="30" s:height="20" id="cell_fr">
    <text x="15" y="-4" class="nodelabel cell_fr" s:attribute="ref">fr</text>
    <s:alias val="$_inputExt_"/>
    <path d="M0,0 L0,20 L15,20 L30,10 L15,0 Z" class="cell_fr"/>
    <g s:x="28" s:y="10" s:pid="Y"/>
  </g>
  <g s:type="inputExt" transform="translate(204,491.5)" s:width="30" s:height="20" id="cell_read_mask">
    <text x="15" y="-4" class="nodelabel cell_read_mask" s:attribute="ref">read_mask</text>
    <s:alias val="$_inputExt_"/>
    <path d="M0,0 L0,20 L15,20 L30,10 L15,0 Z" class="cell_read_mask"/>
    <g s:x="28" s:y="10" s:pid="Y"/>
  </g>
  <g s:type="inputExt" transform="translate(204,621.5)" s:width="30" s:height="20" id="cell_write_mask">
    <text x="15" y="-4" class="nodelabel cell_write_mask" s:attribute="ref">write_mask</text>
    <s:alias val="$_inputExt_"/>
    <path d="M0,0 L0,20 L15,20 L30,10 L15,0 Z" class="cell_write_mask"/>
    <g s:x="28" s:y="10" s:pid="Y"/>
  </g>
  <g s:type="inputExt" transform="translate(204,426.5)" s:width="30" s:height="20" id="cell_num_blocks">
    <text x="15" y="-4" class="nodelabel cell_num_blocks" s:attribute="ref">num_blocks</text>
    <s:alias val="$_inputExt_"/>
    <path d="M0,0 L0,20 L15,20 L30,10 L15,0 Z" class="cell_num_blocks"/>
    <g s:x="28" s:y="10" s:pid="Y"/>
  </g>
  <g s:type="inputExt" transform="translate(204,22)" s:width="30" s:height="20" id="cell_addr">
    <text x="15" y="-4" class="nodelabel cell_addr" s:attribute="ref">addr</text>
    <s:alias val="$_inputExt_"/>
    <path d="M0,0 L0,20 L15,20 L30,10 L15,0 Z" class="cell_addr"/>
    <g s:x="28" s:y="10" s:pid="Y"/>
  </g>
  <g s:type="outputExt" transform="translate(138,22)" s:width="30" s:height="20" id="cell_base_addr">
    <text x="15" y="-4" class="nodelabel cell_base_addr" s:attribute="ref">base_addr</text>
    <s:alias val="$_outputExt_"/>
    <path d="M30,0 L30,20 L15,20 L0,10 L15,0 Z" class="cell_base_addr"/>
    <g s:x="0" s:y="10" s:pid="A"/>
  </g>
  <g s:type="outputExt" transform="translate(54,22)" s:width="30" s:height="20" id="cell_rdy">
    <text x="15" y="-4" class="nodelabel cell_rdy" s:attribute="ref">rdy</text>
    <s:alias val="$_outputExt_"/>
    <path d="M30,0 L30,20 L15,20 L0,10 L15,0 Z" class="cell_rdy"/>
    <g s:x="0" s:y="10" s:pid="A"/>
  </g>
  <g s:type="outputExt" transform="translate(96,22)" s:width="30" s:height="20" id="cell_bsy">
    <text x="15" y="-4" class="nodelabel cell_bsy" s:attribute="ref">bsy</text>
    <s:alias val="$_outputExt_"/>
    <path d="M30,0 L30,20 L15,20 L0,10 L15,0 Z" class="cell_bsy"/>
    <g s:x="0" s:y="10" s:pid="A"/>
  </g>
  <line x1="460" x2="678" y1="376.5" y2="376.5" class="net_117"/>
  <line x1="460" x2="625" y1="376.5" y2="376.5" class="net_117"/>
  <line x1="625" x2="625" y1="376.5" y2="439.5" class="net_117"/>
  <line x1="625" x2="735" y1="439.5" y2="439.5" class="net_117"/>
  <line x1="735" x2="735" y1="439.5" y2="457.5" class="net_117"/>
  <circle cx="625" cy="376.5" r="2" style="fill:#000" class="net_117"/>
  <line x1="735" x2="866" y1="457.5" y2="457.5" class="net_117"/>
  <line x1="460" x2="665" y1="148.5" y2="148.5" class="net_118"/>
  <line x1="665" x2="665" y1="148.5" y2="391.5" class="net_118"/>
  <line x1="665" x2="678" y1="391.5" y2="391.5" class="net_118"/>
  <line x1="232" x2="725" y1="97" y2="97" class="net_2"/>
  <line x1="725" x2="725" y1="97" y2="337.5" class="net_2"/>
  <line x1="725" x2="866" y1="337.5" y2="337.5" class="net_2"/>
  <line x1="232" x2="294" y1="97" y2="97" class="net_2"/>
  <line x1="294" x2="294" y1="97" y2="168.5" class="net_2"/>
  <circle cx="294" cy="97" r="2" style="fill:#000" class="net_2"/>
  <circle cx="294" cy="168.5" r="2" style="fill:#000" class="net_2"/>
  <line x1="294" x2="429" y1="168.5" y2="168.5" class="net_2"/>
  <line x1="232" x2="294" y1="97" y2="97" class="net_2"/>
  <line x1="294" x2="294" y1="97" y2="376.5" class="net_2"/>
  <circle cx="294" cy="376.5" r="2" style="fill:#000" class="net_2"/>
  <line x1="294" x2="429" y1="376.5" y2="376.5" class="net_2"/>
  <line x1="232" x2="294" y1="97" y2="97" class="net_2"/>
  <line x1="294" x2="294" y1="97" y2="577.5" class="net_2"/>
  <line x1="294" x2="715" y1="577.5" y2="577.5" class="net_2"/>
  <line x1="715" x2="715" y1="577.5" y2="585.5" class="net_2"/>
  <line x1="715" x2="866" y1="585.5" y2="585.5" class="net_2"/>
  <line x1="705" x2="725" y1="384" y2="384" class="net_119"/>
  <line x1="725" x2="725" y1="384" y2="357.5" class="net_119"/>
  <line x1="725" x2="866" y1="357.5" y2="357.5" class="net_119"/>
  <line x1="460" x2="715" y1="128.5" y2="128.5" class="net_121,122,123,124,125,126,127,128,129,130"/>
  <line x1="715" x2="715" y1="128.5" y2="377.5" class="net_121,122,123,124,125,126,127,128,129,130"/>
  <line x1="715" x2="866" y1="377.5" y2="377.5" class="net_121,122,123,124,125,126,127,128,129,130"/>
  <line x1="460" x2="655" y1="168.5" y2="168.5" class="net_178,179,180,181,182,183,184,185,186,187,188,189,190,191,192,193,194,195,196,197,198,199,200,201,202,203,204,205,206,207,208,209,210,211,212,213,214,215,216,217,218,219,220,221,222,223,224"/>
  <line x1="655" x2="655" y1="168.5" y2="406.5" class="net_178,179,180,181,182,183,184,185,186,187,188,189,190,191,192,193,194,195,196,197,198,199,200,201,202,203,204,205,206,207,208,209,210,211,212,213,214,215,216,217,218,219,220,221,222,223,224"/>
  <line x1="655" x2="715" y1="406.5" y2="406.5" class="net_178,179,180,181,182,183,184,185,186,187,188,189,190,191,192,193,194,195,196,197,198,199,200,201,202,203,204,205,206,207,208,209,210,211,212,213,214,215,216,217,218,219,220,221,222,223,224"/>
  <line x1="715" x2="715" y1="406.5" y2="397.5" class="net_178,179,180,181,182,183,184,185,186,187,188,189,190,191,192,193,194,195,196,197,198,199,200,201,202,203,204,205,206,207,208,209,210,211,212,213,214,215,216,217,218,219,220,221,222,223,224"/>
  <line x1="715" x2="866" y1="397.5" y2="397.5" class="net_178,179,180,181,182,183,184,185,186,187,188,189,190,191,192,193,194,195,196,197,198,199,200,201,202,203,204,205,206,207,208,209,210,211,212,213,214,215,216,217,218,219,220,221,222,223,224"/>
  <line x1="460" x2="645" y1="188.5" y2="188.5" class="net_225"/>
  <line x1="645" x2="645" y1="188.5" y2="417.5" class="net_225"/>
  <line x1="645" x2="866" y1="417.5" y2="417.5" class="net_225"/>
  <line x1="460" x2="635" y1="356.5" y2="356.5" class="net_226,227,228,229,230,231,232,233,234,235"/>
  <line x1="635" x2="635" y1="356.5" y2="428.5" class="net_226,227,228,229,230,231,232,233,234,235"/>
  <line x1="635" x2="715" y1="428.5" y2="428.5" class="net_226,227,228,229,230,231,232,233,234,235"/>
  <line x1="715" x2="715" y1="428.5" y2="437.5" class="net_226,227,228,229,230,231,232,233,234,235"/>
  <line x1="715" x2="866" y1="437.5" y2="437.5" class="net_226,227,228,229,230,231,232,233,234,235"/>
  <line x1="460" x2="605" y1="396.5" y2="396.5" class="net_283,284,285,286,287,288,289,290,291,292,293,294,295,296,297,298,299,300,301,302,303,304,305,306,307,308,309,310,311,312,313,314,315,316,317,318,319,320,321,322,323,324,325,326,327,328,329"/>
  <line x1="605" x2="605" y1="396.5" y2="450.5" class="net_283,284,285,286,287,288,289,290,291,292,293,294,295,296,297,298,299,300,301,302,303,304,305,306,307,308,309,310,311,312,313,314,315,316,317,318,319,320,321,322,323,324,325,326,327,328,329"/>
  <line x1="605" x2="725" y1="450.5" y2="450.5" class="net_283,284,285,286,287,288,289,290,291,292,293,294,295,296,297,298,299,300,301,302,303,304,305,306,307,308,309,310,311,312,313,314,315,316,317,318,319,320,321,322,323,324,325,326,327,328,329"/>
  <line x1="725" x2="725" y1="450.5" y2="477.5" class="net_283,284,285,286,287,288,289,290,291,292,293,294,295,296,297,298,299,300,301,302,303,304,305,306,307,308,309,310,311,312,313,314,315,316,317,318,319,320,321,322,323,324,325,326,327,328,329"/>
  <line x1="725" x2="866" y1="477.5" y2="477.5" class="net_283,284,285,286,287,288,289,290,291,292,293,294,295,296,297,298,299,300,301,302,303,304,305,306,307,308,309,310,311,312,313,314,315,316,317,318,319,320,321,322,323,324,325,326,327,328,329"/>
  <line x1="460" x2="595" y1="416.5" y2="416.5" class="net_330"/>
  <line x1="595" x2="595" y1="416.5" y2="461.5" class="net_330"/>
  <line x1="595" x2="715" y1="461.5" y2="461.5" class="net_330"/>
  <line x1="715" x2="715" y1="461.5" y2="497.5" class="net_330"/>
  <line x1="715" x2="866" y1="497.5" y2="497.5" class="net_330"/>
  <line x1="232" x2="715" y1="566.5" y2="566.5" class="net_3"/>
  <line x1="715" x2="715" y1="566.5" y2="517.5" class="net_3"/>
  <line x1="715" x2="866" y1="517.5" y2="517.5" class="net_3"/>
  <line x1="232" x2="324" y1="566.5" y2="566.5" class="net_3"/>
  <line x1="324" x2="324" y1="566.5" y2="228.5" class="net_3"/>
  <circle cx="324" cy="566.5" r="2" style="fill:#000" class="net_3"/>
  <line x1="324" x2="429" y1="228.5" y2="228.5" class="net_3"/>
  <line x1="232" x2="324" y1="566.5" y2="566.5" class="net_3"/>
  <line x1="324" x2="324" y1="566.5" y2="496.5" class="net_3"/>
  <circle cx="324" cy="496.5" r="2" style="fill:#000" class="net_3"/>
  <line x1="324" x2="429" y1="496.5" y2="496.5" class="net_3"/>
  <line x1="232" x2="324" y1="566.5" y2="566.5" class="net_3"/>
  <line x1="324" x2="324" y1="566.5" y2="647.5" class="net_3"/>
  <line x1="324" x2="715" y1="647.5" y2="647.5" class="net_3"/>
  <line x1="715" x2="715" y1="647.5" y2="665.5" class="net_3"/>
  <line x1="715" x2="866" y1="665.5" y2="665.5" class="net_3"/>
  <line x1="897" x2="1016" y1="357.5" y2="357.5" class="net_131,132,133,134,135,136,137,138,139,140,141,142,143,144,145,146,147,148,149,150,151,152,153,154,155,156,157,158,159,160,161,162,163,164,165,166,167,168,169,170,171,172,173,174,175,176,177"/>
  <line x1="1016" x2="1016" y1="357.5" y2="86" class="net_131,132,133,134,135,136,137,138,139,140,141,142,143,144,145,146,147,148,149,150,151,152,153,154,155,156,157,158,159,160,161,162,163,164,165,166,167,168,169,170,171,172,173,174,175,176,177"/>
  <line x1="1016" x2="334" y1="86" y2="86" class="net_131,132,133,134,135,136,137,138,139,140,141,142,143,144,145,146,147,148,149,150,151,152,153,154,155,156,157,158,159,160,161,162,163,164,165,166,167,168,169,170,171,172,173,174,175,176,177"/>
  <line x1="334" x2="334" y1="86" y2="128.5" class="net_131,132,133,134,135,136,137,138,139,140,141,142,143,144,145,146,147,148,149,150,151,152,153,154,155,156,157,158,159,160,161,162,163,164,165,166,167,168,169,170,171,172,173,174,175,176,177"/>
  <line x1="334" x2="429" y1="128.5" y2="128.5" class="net_131,132,133,134,135,136,137,138,139,140,141,142,143,144,145,146,147,148,149,150,151,152,153,154,155,156,157,158,159,160,161,162,163,164,165,166,167,168,169,170,171,172,173,174,175,176,177"/>
  <line x1="232" x2="304" y1="32" y2="32" class="net_51,52,53,54,55,56,57,58,59,60,61,62,63,64,65,66,67,68,69,70,71,72,73,74,75,76,77,78,79,80,81,82"/>
  <line x1="304" x2="304" y1="32" y2="148.5" class="net_51,52,53,54,55,56,57,58,59,60,61,62,63,64,65,66,67,68,69,70,71,72,73,74,75,76,77,78,79,80,81,82"/>
  <line x1="304" x2="429" y1="148.5" y2="148.5" class="net_51,52,53,54,55,56,57,58,59,60,61,62,63,64,65,66,67,68,69,70,71,72,73,74,75,76,77,78,79,80,81,82"/>
  <line x1="232" x2="429" y1="188.5" y2="188.5" class="net_4,5,6,7"/>
  <line x1="232" x2="334" y1="188.5" y2="188.5" class="net_4,5,6,7"/>
  <line x1="334" x2="334" y1="188.5" y2="396.5" class="net_4,5,6,7"/>
  <circle cx="334" cy="188.5" r="2" style="fill:#000" class="net_4,5,6,7"/>
  <line x1="334" x2="429" y1="396.5" y2="396.5" class="net_4,5,6,7"/>
  <line x1="897" x2="1026" y1="377.5" y2="377.5" class="net_236,237,238,239,240,241,242,243,244,245,246,247,248,249,250,251,252,253,254,255,256,257,258,259,260,261,262,263,264,265,266,267,268,269,270,271,272,273,274,275,276,277,278,279,280,281,282"/>
  <line x1="1026" x2="1026" y1="377.5" y2="699" class="net_236,237,238,239,240,241,242,243,244,245,246,247,248,249,250,251,252,253,254,255,256,257,258,259,260,261,262,263,264,265,266,267,268,269,270,271,272,273,274,275,276,277,278,279,280,281,282"/>
  <line x1="1026" x2="284" y1="699" y2="699" class="net_236,237,238,239,240,241,242,243,244,245,246,247,248,249,250,251,252,253,254,255,256,257,258,259,260,261,262,263,264,265,266,267,268,269,270,271,272,273,274,275,276,277,278,279,280,281,282"/>
  <line x1="284" x2="284" y1="699" y2="356.5" class="net_236,237,238,239,240,241,242,243,244,245,246,247,248,249,250,251,252,253,254,255,256,257,258,259,260,261,262,263,264,265,266,267,268,269,270,271,272,273,274,275,276,277,278,279,280,281,282"/>
  <line x1="284" x2="429" y1="356.5" y2="356.5" class="net_236,237,238,239,240,241,242,243,244,245,246,247,248,249,250,251,252,253,254,255,256,257,258,259,260,261,262,263,264,265,266,267,268,269,270,271,272,273,274,275,276,277,278,279,280,281,282"/>
  <line x1="232" x2="429" y1="436.5" y2="436.5" class="net_41,42,43,44,45,46,47,48,49,50"/>
  <line x1="232" x2="274" y1="501.5" y2="501.5" class="net_9,10,11,12,13,14,15,16,17,18,19,20,21,22,23,24"/>
  <line x1="274" x2="274" y1="501.5" y2="456.5" class="net_9,10,11,12,13,14,15,16,17,18,19,20,21,22,23,24"/>
  <line x1="274" x2="429" y1="456.5" y2="456.5" class="net_9,10,11,12,13,14,15,16,17,18,19,20,21,22,23,24"/>
  <line x1="897" x2="1016" y1="625.5" y2="625.5" class="net_383,384,385,386,387,388,389,390,391,392"/>
  <line x1="1016" x2="1016" y1="625.5" y2="688" class="net_383,384,385,386,387,388,389,390,391,392"/>
  <line x1="1016" x2="304" y1="688" y2="688" class="net_383,384,385,386,387,388,389,390,391,392"/>
  <line x1="304" x2="304" y1="688" y2="476.5" class="net_383,384,385,386,387,388,389,390,391,392"/>
  <line x1="304" x2="429" y1="476.5" y2="476.5" class="net_383,384,385,386,387,388,389,390,391,392"/>
  <line x1="232" x2="314" y1="631.5" y2="631.5" class="net_25,26,27,28,29,30,31,32,33,34,35,36,37,38,39,40"/>
  <line x1="314" x2="314" y1="631.5" y2="516.5" class="net_25,26,27,28,29,30,31,32,33,34,35,36,37,38,39,40"/>
  <line x1="314" x2="429" y1="516.5" y2="516.5" class="net_25,26,27,28,29,30,31,32,33,34,35,36,37,38,39,40"/>
  <line x1="460" x2="625" y1="516.5" y2="516.5" class="net_382"/>
  <line x1="625" x2="625" y1="516.5" y2="588.5" class="net_382"/>
  <line x1="625" x2="715" y1="588.5" y2="588.5" class="net_382"/>
  <line x1="715" x2="715" y1="588.5" y2="605.5" class="net_382"/>
  <line x1="715" x2="866" y1="605.5" y2="605.5" class="net_382"/>
  <line x1="460" x2="615" y1="268.5" y2="268.5" class="net_335"/>
  <line x1="615" x2="615" y1="268.5" y2="625.5" class="net_335"/>
  <line x1="615" x2="866" y1="625.5" y2="625.5" class="net_335"/>
  <line x1="460" x2="585" y1="288.5" y2="288.5" class="net_336,337,338,339,340,341,342,343,344,345"/>
  <line x1="585" x2="585" y1="288.5" y2="636.5" class="net_336,337,338,339,340,341,342,343,344,345"/>
  <line x1="585" x2="715" y1="636.5" y2="636.5" class="net_336,337,338,339,340,341,342,343,344,345"/>
  <line x1="715" x2="715" y1="636.5" y2="645.5" class="net_336,337,338,339,340,341,342,343,344,345"/>
  <line x1="715" x2="866" y1="645.5" y2="645.5" class="net_336,337,338,339,340,341,342,343,344,345"/>
</svg>
